<svg width="80" height="80" viewBox="0 0 80 80" fill="none" xmlns="http://www.w3.org/2000/svg">
<path fill-rule="evenodd" clip-rule="evenodd" d="M37.5 38.9998C36.9477 38.9998 36.5 38.5521 36.5 37.9998C36.5 37.4475 36.9477 36.9998 37.5 36.9998C38.0523 36.9998 38.5 37.4475 38.5 37.9998C38.5 38.5521 38.0523 38.9998 37.5 38.9998ZM39.5 45.2098V47.9898C37.23 47.8598 35.21 46.7798 33.84 45.1298C34.52 44.5898 36.12 44.0198 37.5 44.0198C37.58 44.0198 37.65 44.0298 37.73 44.0298C37.97 43.3898 38.4 42.7398 39.03 42.1698C38.47 42.0598 37.94 42.0098 37.5 42.0098C36.2 42.0098 34.11 42.4598 32.77 43.4398C32.28 42.3998 31.99 41.2398 31.99 40.0098C31.99 35.5998 35.58 32.0098 39.99 32.0098C44.4 32.0098 47.99 35.5998 47.99 40.0098C47.99 41.2198 47.72 42.3598 47.24 43.3798C46.24 42.7798 44.88 42.5098 44 42.5098C42.48 42.5098 39.5 43.3298 39.5 45.2098ZM44 36.9998C42.89 36.9998 41.99 37.8898 42 38.9998C42 40.1098 42.89 40.9998 44 40.9998C45.11 40.9998 46 40.1098 46 38.9998C46 37.8898 45.11 36.9998 44 36.9998ZM37.5 40.9998C39.15 40.9998 40.5 39.6498 40.5 37.9998C40.5 36.3498 39.15 34.9998 37.5 34.9998C35.85 34.9998 34.5 36.3498 34.5 37.9998C34.5 39.6498 35.85 40.9998 37.5 40.9998Z" fill="white"/>
<path fill-rule="evenodd" clip-rule="evenodd" d="M40.5 37.9998C40.5 36.3498 39.15 34.9998 37.5 34.9998C35.85 34.9998 34.5 36.3498 34.5 37.9998C34.5 39.6498 35.85 40.9998 37.5 40.9998C39.15 40.9998 40.5 39.6498 40.5 37.9998ZM37.5 38.9998C36.95 38.9998 36.5 38.5498 36.5 37.9998C36.5 37.4498 36.95 36.9998 37.5 36.9998C38.05 36.9998 38.5 37.4498 38.5 37.9998C38.5 38.5498 38.05 38.9998 37.5 38.9998ZM44 40.9998C45.11 40.9998 46 40.1098 46 38.9998C46 37.8898 45.11 36.9998 44 36.9998C42.89 36.9998 41.99 37.8898 42 38.9998C42 40.1098 42.89 40.9998 44 40.9998ZM39.99 30.0098C34.47 30.0098 29.99 34.4898 29.99 40.0098C29.99 45.5298 34.47 50.0098 39.99 50.0098C45.51 50.0098 49.99 45.5298 49.99 40.0098C49.99 34.4898 45.51 30.0098 39.99 30.0098ZM33.84 45.1198C34.52 44.5798 36.11 44.0098 37.5 44.0098C37.57 44.0098 37.65 44.0198 37.73 44.0198C37.97 43.3798 38.4 42.7298 39.03 42.1598C38.47 42.0598 37.94 41.9998 37.5 41.9998C36.2 41.9998 34.11 42.4498 32.77 43.4298C32.27 42.3898 31.99 41.2298 31.99 39.9998C31.99 35.5898 35.58 31.9998 39.99 31.9998C44.4 31.9998 47.99 35.5898 47.99 39.9998C47.99 41.1998 47.72 42.3398 47.24 43.3698C46.24 42.7798 44.88 42.4998 44 42.4998C42.48 42.4998 39.5 43.3098 39.5 45.1998V47.9798C37.23 47.8498 35.21 46.7698 33.84 45.1198Z" fill="#9A9AB0"/>
</svg>
