<svg width="127" height="40" viewBox="0 0 127 40" fill="none" xmlns="http://www.w3.org/2000/svg">
<path d="M49.848 12.912H56.136C58.936 12.912 61.104 13.656 62.64 15.144C64.192 16.632 64.968 18.728 64.968 21.432C64.968 24.152 64.192 26.264 62.64 27.768C61.104 29.256 58.936 30 56.136 30H49.848V12.912ZM55.944 27.48C59.88 27.48 61.848 25.464 61.848 21.432C61.848 17.432 59.88 15.432 55.944 15.432H52.944V27.48H55.944ZM79.6253 17.88V30H76.6733V28.056C76.3053 28.728 75.7773 29.256 75.0893 29.64C74.4013 30.008 73.6173 30.192 72.7373 30.192C71.6813 30.192 70.7453 29.936 69.9293 29.424C69.1133 28.912 68.4813 28.184 68.0333 27.24C67.5853 26.296 67.3613 25.2 67.3613 23.952C67.3613 22.704 67.5853 21.6 68.0333 20.64C68.4973 19.664 69.1373 18.912 69.9533 18.384C70.7693 17.84 71.6973 17.568 72.7373 17.568C73.6173 17.568 74.4013 17.76 75.0893 18.144C75.7773 18.512 76.3053 19.032 76.6733 19.704V17.88H79.6253ZM73.5533 27.84C74.5453 27.84 75.3133 27.496 75.8573 26.808C76.4013 26.12 76.6733 25.152 76.6733 23.904C76.6733 22.624 76.4013 21.64 75.8573 20.952C75.3133 20.264 74.5373 19.92 73.5293 19.92C72.5373 19.92 71.7613 20.28 71.2013 21C70.6573 21.704 70.3853 22.688 70.3853 23.952C70.3853 25.2 70.6573 26.16 71.2013 26.832C71.7613 27.504 72.5453 27.84 73.5533 27.84ZM93.0926 27.72V30H82.5566V27.912L89.2526 20.136H82.7006V17.88H92.8286V19.92L86.1086 27.72H93.0926ZM105.845 27.72V30H95.3094V27.912L102.005 20.136H95.4534V17.88H105.581V19.92L98.8614 27.72H105.845ZM108.518 17.88H111.494V30H108.518V17.88ZM111.662 12.384V15.336H108.326V12.384H111.662ZM125.504 24.096H117.152C117.216 25.392 117.536 26.352 118.112 26.976C118.704 27.584 119.576 27.888 120.728 27.888C122.056 27.888 123.288 27.456 124.424 26.592L125.288 28.656C124.712 29.12 124 29.496 123.152 29.784C122.32 30.056 121.472 30.192 120.608 30.192C118.624 30.192 117.064 29.632 115.928 28.512C114.792 27.392 114.224 25.856 114.224 23.904C114.224 22.672 114.472 21.576 114.968 20.616C115.464 19.656 116.16 18.912 117.056 18.384C117.952 17.84 118.968 17.568 120.104 17.568C121.768 17.568 123.08 18.112 124.04 19.2C125.016 20.272 125.504 21.752 125.504 23.64V24.096ZM120.176 19.728C119.376 19.728 118.72 19.968 118.208 20.448C117.712 20.912 117.392 21.592 117.248 22.488H122.888C122.792 21.576 122.512 20.888 122.048 20.424C121.6 19.96 120.976 19.728 120.176 19.728Z" fill="#11142D"/>
<rect width="40" height="40" rx="8" fill="#E2E2EA"/>
</svg>
